<svg width="104" height="36" viewBox="0 0 104 36" fill="none" xmlns="http://www.w3.org/2000/svg">
<path d="M38.6022 0.155304V35.5477H31.5068V12.4877L21.9619 35.5477H16.5559L7.09537 12.4877V35.4632H0V0.155304H8.02452L19.2589 26.4251L30.5777 0.155304H38.6022Z" fill="#F9F9F9"/>
<path d="M45.4441 13.8392C46.5422 11.643 48.1471 9.95367 50.0899 8.77111C52.0327 7.58855 54.2289 6.99727 56.594 6.99727C58.7057 6.99727 60.4796 7.41961 62.0845 8.2643C63.6894 9.10899 64.8719 10.2071 65.8856 11.4741V7.41961H73.0654V35.4632H65.8856V31.4087C64.9564 32.7602 63.6894 33.8583 62.0845 34.703C60.4796 35.5477 58.6212 35.97 56.5095 35.97C54.1444 35.97 51.9482 35.3787 50.0899 34.1117C48.1471 32.9291 46.6267 31.1553 45.4441 28.9591C44.346 26.7629 43.7548 24.2289 43.7548 21.3569C43.7548 18.5695 44.2616 16.0354 45.4441 13.8392ZM64.7875 17.049C64.1117 15.782 63.1826 14.8529 62.0845 14.1771C60.9019 13.5014 59.7193 13.1635 58.3678 13.1635C57.0163 13.1635 55.8338 13.5014 54.7357 14.0926C53.6376 14.7684 52.7084 15.6975 52.0327 16.8801C51.3569 18.1471 51.0191 19.5831 51.0191 21.2725C51.0191 22.9618 51.3569 24.4823 52.0327 25.7493C52.7084 27.0163 53.6376 28.03 54.7357 28.7057C55.8338 29.3815 57.1008 29.7193 58.3678 29.7193C59.7193 29.7193 60.9019 29.3815 62.0845 28.7057C63.267 28.03 64.1117 27.1008 64.7875 25.8338C65.4632 24.5668 65.8011 23.1308 65.8011 21.3569C65.8011 19.5831 65.4632 18.3161 64.7875 17.049Z" fill="#F9F9F9"/>
<path d="M95.4496 35.5477L89.7058 26.8474L84.5532 35.5477H76.951L86.1581 21.4414L76.8665 7.4196H84.891L90.6349 16.1199L95.7875 7.4196H103.39L94.1826 21.4414L103.474 35.5477H95.4496Z" fill="#F9F9F9"/>
</svg>
